<?xml version="1.0" encoding="UTF-8" standalone="no"?>
<!-- Created with Inkscape (http://www.inkscape.org/) -->

<svg
   width="210mm"
   height="297mm"
   viewBox="0 0 210 297"
   version="1.1"
   id="svg5"
   inkscape:version="1.2.2 (b0a8486541, 2022-12-01)"
   sodipodi:docname="tilde-logo.svg"
   xmlns:inkscape="http://www.inkscape.org/namespaces/inkscape"
   xmlns:sodipodi="http://sodipodi.sourceforge.net/DTD/sodipodi-0.dtd"
   xmlns:xlink="http://www.w3.org/1999/xlink"
   xmlns="http://www.w3.org/2000/svg"
   xmlns:svg="http://www.w3.org/2000/svg"
   xmlns:rdf="http://www.w3.org/1999/02/22-rdf-syntax-ns#"
   xmlns:cc="http://creativecommons.org/ns#"
   xmlns:dc="http://purl.org/dc/elements/1.1/">
  <metadata
     id="metadata3803">
    <rdf:RDF>
      <cc:Work
         rdf:about="">
        <dc:format>image/svg+xml</dc:format>
        <dc:type
           rdf:resource="http://purl.org/dc/dcmitype/StillImage" />
        <dc:title />
      </cc:Work>
    </rdf:RDF>
  </metadata>
  <sodipodi:namedview
     id="namedview7"
     pagecolor="#ffffff"
     bordercolor="#666666"
     borderopacity="1.0"
     inkscape:pageshadow="2"
     inkscape:pageopacity="0.0"
     inkscape:pagecheckerboard="0"
     inkscape:document-units="mm"
     showgrid="false"
     inkscape:zoom="1.0591361"
     inkscape:cx="676.96681"
     inkscape:cy="582.55024"
     inkscape:window-width="3440"
     inkscape:window-height="1331"
     inkscape:window-x="0"
     inkscape:window-y="0"
     inkscape:window-maximized="1"
     inkscape:current-layer="layer1"
     inkscape:object-paths="true"
     inkscape:showpageshadow="2"
     inkscape:deskcolor="#d1d1d1" />
  <defs
     id="defs2">
    <inkscape:path-effect
       effect="fillet_chamfer"
       id="path-effect18906"
       is_visible="true"
       lpeversion="1"
       nodesatellites_param="F,0,0,1,0,0.26458333,0,4 @ F,0,0,1,0,0.26458333,0,4 @ F,0,0,1,0,0.26458333,0,4 @ F,0,0,1,0,0.26458333,0,4"
       unit="px"
       method="auto"
       mode="F"
       radius="1"
       chamfer_steps="4"
       flexible="false"
       use_knot_distance="true"
       apply_no_radius="true"
       apply_with_radius="true"
       only_selected="false"
       hide_knots="false" />
    <inkscape:path-effect
       effect="fillet_chamfer"
       id="path-effect1544"
       is_visible="true"
       lpeversion="1"
       satellites_param="C,0,0,1,0,0.52916667,0,10 @ C,0,0,1,0,0.52916667,0,10 @ C,0,0,1,0,0.52916667,0,10 @ C,0,0,1,0,0.52916667,0,10"
       unit="px"
       method="auto"
       mode="F"
       radius="2"
       chamfer_steps="10"
       flexible="false"
       use_knot_distance="true"
       apply_no_radius="true"
       apply_with_radius="true"
       only_selected="false"
       hide_knots="false"
       nodesatellites_param="C,0,0,1,0,0.52916667,0,10 @ C,0,0,1,0,0.52916667,0,10 @ C,0,0,1,0,0.52916667,0,10 @ C,0,0,1,0,0.52916667,0,10" />
    <linearGradient
       inkscape:collect="always"
       id="linearGradient2277">
      <stop
         style="stop-color:#ff8b00;stop-opacity:1;"
         offset="0"
         id="stop2273" />
      <stop
         style="stop-color:#ff8b00;stop-opacity:0;"
         offset="1"
         id="stop2275" />
    </linearGradient>
    <linearGradient
       inkscape:collect="always"
       xlink:href="#linearGradient2277"
       id="linearGradient2279"
       x1="98.417931"
       y1="130.68909"
       x2="98.417931"
       y2="133.04268"
       gradientUnits="userSpaceOnUse"
       gradientTransform="matrix(20.206531,0,0,20.206531,-1955.2271,-2639.9022)" />
  </defs>
  <g
     inkscape:label="Layer 1"
     inkscape:groupmode="layer"
     id="layer1">
    <ellipse
       style="fill:#aa0000;fill-opacity:1;fill-rule:evenodd;stroke-width:3.73343"
       id="path31"
       cx="33.290836"
       cy="35.471611"
       rx="28.763395"
       ry="28.747704"
       inkscape:export-filename="/home/aaronh/Documents/Tilde/LOGO.png"
       inkscape:export-xdpi="96"
       inkscape:export-ydpi="96" />
    <path
       id="path989"
       style="opacity:0.949361;fill:url(#linearGradient2279);fill-opacity:1;stroke-width:5.34632"
       d="M 33.284136,6.7753999 A 28.809499,28.809499 0 0 0 4.4746151,35.585027 a 28.809499,28.809499 0 0 0 3.038637,12.8437 H 59.055005 a 28.809499,28.809499 0 0 0 3.038611,-12.8437 28.809499,28.809499 0 0 0 -28.80948,-28.8096271 z"
       inkscape:export-filename="/home/aaronh/Documents/Tilde/LOGO.png"
       inkscape:export-xdpi="96"
       inkscape:export-ydpi="96" />
    <rect
       style="fill:#c87137;fill-opacity:1;stroke-width:2.16681"
       id="rect1996"
       width="18.524321"
       height="0.48263595"
       x="24.028675"
       y="47.611023" />
    <path
       id="path2432"
       style="fill:#f2f2f2;fill-opacity:1;stroke-width:4.63391"
       d="M 21.620903 23.332426 A 11.681459 29.08309 0 0 0 27.339933 47.610531 L 39.236365 47.610531 A 11.681459 29.08309 0 0 0 42.720907 39.711788 A 6.3456471 8.2123824 58.772448 0 0 50.402608 33.004187 A 6.3456471 8.2123824 58.772448 0 0 44.879948 26.07231 A 11.681459 29.08309 0 0 0 44.960563 23.332426 L 21.620903 23.332426 z M 44.850492 27.884603 A 4.6142873 6.1339563 38.697737 0 1 48.461641 33.499764 A 4.6142873 6.1339563 38.697737 0 1 42.935364 38.962996 A 11.681459 29.08309 0 0 0 44.76626 27.887187 A 4.6142873 6.1339563 38.697737 0 1 44.850492 27.884603 z M 33.009871 32.694645 C 33.430436 32.934995 33.681818 33.32979 33.764347 33.879069 C 33.796887 34.095679 33.810722 34.327651 33.805172 34.575151 C 33.791732 34.81748 33.746956 35.136819 33.67133 35.533748 C 33.60544 35.853358 33.569611 36.112969 33.563843 36.311479 C 33.550183 36.504828 33.55636 36.686475 33.58193 36.856665 C 33.614469 37.073285 33.705828 37.279589 33.856331 37.475749 C 34.006834 37.671899 34.180481 37.830756 34.376713 37.952205 L 33.588647 38.252445 C 33.175979 38.017266 32.927685 37.621414 32.84399 37.064404 C 32.81028 36.840045 32.797393 36.611721 32.805233 36.379692 C 32.811933 36.139932 32.855809 35.816458 32.937008 35.409208 C 33.002898 35.089608 33.042717 34.833096 33.05638 34.639746 C 33.06218 34.441236 33.052855 34.260637 33.028475 34.098177 C 32.994765 33.873817 32.902513 33.663874 32.752006 33.467725 C 32.601502 33.271575 32.428377 33.112718 32.232141 32.991268 L 33.009871 32.694645 z M 27.238131 33.53387 C 27.535552 33.70288 27.714483 33.978944 27.774532 34.362244 C 27.798212 34.513394 27.808608 34.675442 27.805538 34.848002 C 27.796838 35.016942 27.766597 35.239639 27.714587 35.516178 C 27.669187 35.738818 27.644607 35.919348 27.641207 36.057747 C 27.632207 36.192527 27.637096 36.319316 27.655676 36.438086 C 27.679356 36.589236 27.744722 36.733845 27.85153 36.871134 C 27.958334 37.008414 28.081175 37.119614 28.219983 37.204964 L 27.664978 37.41167 C 27.373142 37.2463 27.196704 36.969413 27.135811 36.580713 C 27.111281 36.424153 27.101586 36.264992 27.106356 36.103223 C 27.110256 35.936053 27.140373 35.710488 27.196273 35.426778 C 27.241673 35.204128 27.268415 35.025673 27.277405 34.890894 C 27.280805 34.752494 27.273997 34.626499 27.256217 34.513139 C 27.231687 34.356579 27.166133 34.209619 27.05933 34.072339 C 26.952527 33.935059 26.829684 33.823849 26.690877 33.738509 L 27.238131 33.53387 z M 38.936125 33.53387 C 39.233547 33.70288 39.412478 33.978944 39.472526 34.362244 C 39.496196 34.513394 39.506622 34.675442 39.503532 34.848002 C 39.494832 35.016942 39.464601 35.239639 39.412581 35.516178 C 39.367181 35.738818 39.342601 35.919348 39.339201 36.057747 C 39.330201 36.192527 39.33487 36.319316 39.35367 36.438086 C 39.37733 36.589236 39.442719 36.733845 39.549524 36.871134 C 39.656327 37.008414 39.77917 37.119614 39.917977 37.204964 L 39.362972 37.41167 C 39.071134 37.2463 38.894702 36.969413 38.833805 36.580713 C 38.809265 36.424153 38.79961 36.264992 38.80435 36.103223 C 38.80825 35.936053 38.838377 35.710488 38.894267 35.426778 C 38.939667 35.204128 38.966926 35.025673 38.975916 34.890894 C 38.979416 34.752494 38.971881 34.626499 38.954211 34.513139 C 38.929671 34.356579 38.864129 34.209619 38.757324 34.072339 C 38.650521 33.935059 38.527677 33.823849 38.388871 33.738509 L 38.936125 33.53387 z " />
    <text
       xml:space="preserve"
       style="font-style:normal;font-weight:normal;font-size:0.762044px;line-height:1.25;font-family:sans-serif;fill:#ffffff;fill-opacity:1;stroke:none;stroke-width:0.0190512"
       x="-156.991"
       y="34.516529"
       id="text12880"
       transform="matrix(-0.47397471,-0.98466231,0.68998855,-0.67639533,0,0)"><tspan
         sodipodi:role="line"
         id="tspan12878"
         x="-156.991"
         y="34.516529"
         style="fill:#ffffff;stroke-width:0.0190512" /></text>
    <text
       xml:space="preserve"
       style="font-style:normal;font-weight:normal;font-size:0.762044px;line-height:1.25;font-family:sans-serif;fill:#ffffff;fill-opacity:1;stroke:none;stroke-width:0.0190512"
       x="-157.61404"
       y="35.428806"
       id="text14349"
       transform="matrix(-0.47397471,-0.98466231,0.68998855,-0.67639533,0,0)"><tspan
         sodipodi:role="line"
         id="tspan14347"
         x="-157.61404"
         y="35.428806"
         style="fill:#ffffff;stroke-width:0.0190512" /></text>
    <path
       inkscape:connector-curvature="0"
       inkscape:export-ydpi="96"
       inkscape:export-xdpi="96"
       inkscape:export-filename="/home/aaronh/Documents/Tilde/LOGO.png"
       d="m 2.7929488,241.3906 a 26.853506,66.856627 0 0 0 13.1467402,55.81012 h 27.34757 a 26.853506,66.856627 0 0 0 13.15996,-55.81012 z"
       style="fill:#d3bc5f;fill-opacity:1;stroke-width:10.6525"
       id="path4619" />
    <text
       xml:space="preserve"
       style="font-style:normal;font-weight:normal;font-size:8.67849px;line-height:1.25;font-family:sans-serif;fill:#000000;fill-opacity:1;stroke:none;stroke-width:0.216962"
       x="10.033874"
       y="262.35901"
       id="text5766"><tspan
         sodipodi:role="line"
         id="tspan5764"
         style="font-style:normal;font-variant:normal;font-weight:normal;font-stretch:normal;font-family:Ubuntu;-inkscape-font-specification:Ubuntu;fill:#ffffff;stroke-width:0.216962"
         x="10.033874"
         y="262.35901">Tilde Cafe</tspan></text>
    <text
       transform="matrix(-0.15663352,-1.0424172,0.90729565,-0.34615456,0,0)"
       id="text4623"
       y="6.8373919"
       x="-229.57936"
       style="font-style:normal;font-weight:normal;font-size:34.4084px;line-height:1.25;font-family:sans-serif;fill:#28170b;fill-opacity:1;stroke:none;stroke-width:0.860221"
       xml:space="preserve"><tspan
         y="6.8373919"
         x="-229.57936"
         style="font-style:normal;font-variant:normal;font-weight:normal;font-stretch:normal;font-family:'Noto Sans';-inkscape-font-specification:'Noto Sans';fill:#28170b;fill-opacity:1;stroke-width:0.860221"
         id="tspan4621"
         sodipodi:role="line">~</tspan></text>
    <text
       transform="matrix(-0.16250331,-1.0372744,0.91082015,-0.33986744,0,0)"
       id="text4627"
       y="-17.352169"
       x="-221.02779"
       style="font-style:normal;font-weight:normal;font-size:24.1299px;line-height:1.25;font-family:sans-serif;fill:#28170b;fill-opacity:1;stroke:none;stroke-width:0.603254"
       xml:space="preserve"><tspan
         y="-17.352169"
         x="-221.02779"
         style="font-style:normal;font-variant:normal;font-weight:normal;font-stretch:normal;font-family:'Noto Sans';-inkscape-font-specification:'Noto Sans';fill:#28170b;fill-opacity:1;stroke-width:0.603254"
         id="tspan4625"
         sodipodi:role="line">~</tspan></text>
    <text
       transform="matrix(-0.16250331,-1.0372744,0.91082015,-0.33986744,0,0)"
       id="text4631"
       y="20.153049"
       x="-233.31653"
       style="font-style:normal;font-weight:normal;font-size:24.1299px;line-height:1.25;font-family:sans-serif;fill:#28170b;fill-opacity:1;stroke:none;stroke-width:0.603254"
       xml:space="preserve"><tspan
         y="20.153049"
         x="-233.31653"
         style="font-style:normal;font-variant:normal;font-weight:normal;font-stretch:normal;font-family:'Noto Sans';-inkscape-font-specification:'Noto Sans';fill:#28170b;fill-opacity:1;stroke-width:0.603254"
         id="tspan4629"
         sodipodi:role="line">~</tspan></text>
    <ellipse
       style="fill:#7284a8;fill-opacity:1;stroke-width:0.496717"
       id="path403"
       cx="99.192352"
       cy="35.22443"
       rx="30.024614"
       ry="28.994884"
       inkscape:export-filename="coffee-cup2.png"
       inkscape:export-xdpi="96"
       inkscape:export-ydpi="96" />
    <circle
       style="fill:#fffecb;fill-opacity:1;fill-rule:evenodd;stroke-width:0.191133"
       id="path51"
       cx="99.192352"
       cy="35.22443"
       r="19.753571" />
    <circle
       style="fill:#4f3824;fill-opacity:1;stroke-width:0.21524"
       id="path97"
       cx="99.192352"
       cy="35.22443"
       r="17.138948" />
    <path
       style="fill:#fffecb;fill-opacity:1;stroke-width:0.264583"
       id="rect1440"
       width="4.2404151"
       height="8.1790333"
       x="30.18589"
       y="118.0276"
       inkscape:path-effect="#path-effect1544"
       d="m 30.715057,118.0276 h 3.182082 l 0.08278,0.007 0.08074,0.0194 0.07672,0.0318 0.0708,0.0434 0.06314,0.0539 0.05393,0.0631 0.04339,0.0708 0.03178,0.0767 0.01938,0.0807 0.0065,0.0828 v 7.1207 l -0.0065,0.0828 -0.01938,0.0807 -0.03178,0.0767 -0.04339,0.0708 -0.05393,0.0631 -0.06314,0.0539 -0.0708,0.0434 -0.07672,0.0318 -0.08074,0.0194 -0.08278,0.007 h -3.182082 l -0.08278,-0.007 -0.08074,-0.0194 -0.07672,-0.0318 -0.0708,-0.0434 -0.06314,-0.0539 -0.05393,-0.0631 -0.04339,-0.0708 -0.03178,-0.0767 -0.01938,-0.0807 -0.0065,-0.0828 v -7.1207 l 0.0065,-0.0828 0.01938,-0.0807 0.03178,-0.0767 0.04339,-0.0708 0.05393,-0.0631 0.06314,-0.0539 0.0708,-0.0434 0.07672,-0.0318 0.08074,-0.0194 z"
       sodipodi:type="rect"
       transform="rotate(-52.936746)" />
    <ellipse
       style="fill:#a9b3ce;fill-opacity:1;stroke-width:0.496717"
       id="path403-3-3-6"
       cx="34.305069"
       cy="101.88841"
       rx="30.024614"
       ry="28.994884"
       inkscape:export-filename="coffee-cup5.png"
       inkscape:export-xdpi="96"
       inkscape:export-ydpi="96" />
    <path
       id="path403-3-3"
       style="fill:#7284a8;fill-opacity:1;stroke-width:0.496717"
       d="m 7.0592645,114.02746 a 30.024614,28.994884 0 0 0 27.2496495,16.85323 30.024614,28.994884 0 0 0 27.25015,-16.85323 z" />
    <path
       id="path2432-6"
       style="fill:#f2f2f2;fill-opacity:1;stroke-width:4.63391"
       d="m 22.619227,89.747687 a 11.681459,29.08309 0 0 0 5.718514,24.277583 h 11.896431 a 11.681459,29.08309 0 0 0 3.613733,-8.34212 6.3456471,8.2123824 58.772448 0 0 7.62124,-6.695717 6.3456471,8.2123824 58.772448 0 0 -5.573819,-6.933427 11.681459,29.08309 0 0 0 0.06356,-2.306319 z m 23.297803,4.120678 a 4.6142873,6.1339563 38.697737 0 1 3.611149,5.615162 4.6142873,6.1339563 38.697737 0 1 -5.478736,5.452893 11.681459,29.08309 0 0 0 1.748214,-11.064954 4.6142873,6.1339563 38.697737 0 1 0.119373,-0.0031 z" />
    <ellipse
       style="fill:#a9b3ce;fill-opacity:1;stroke-width:0.496717"
       id="path403-3-3-6-2"
       cx="167.17627"
       cy="35.22443"
       rx="30.024614"
       ry="28.994884"
       inkscape:export-filename="coffee-cup6.png"
       inkscape:export-xdpi="96"
       inkscape:export-ydpi="96" />
    <path
       id="path403-3-3-9"
       style="fill:#7284a8;fill-opacity:1;stroke-width:0.496717"
       d="m 139.93246,47.366085 a 30.024614,28.994884 0 0 0 27.24965,16.85323 30.024614,28.994884 0 0 0 27.25015,-16.85323 z" />
    <path
       id="path2432-6-1"
       style="fill:#f2f2f2;fill-opacity:1;stroke-width:4.63391"
       d="M 155.50627 23.085413 A 11.681459 29.08309 0 0 0 161.2253 47.363517 L 173.12173 47.363517 A 11.681459 29.08309 0 0 0 176.73547 39.021391 A 6.3456471 8.2123824 58.772448 0 0 184.35619 32.325675 A 6.3456471 8.2123824 58.772448 0 0 178.78237 25.391732 A 11.681459 29.08309 0 0 0 178.84645 23.085413 L 155.50627 23.085413 z M 178.80459 27.206091 A 4.6142873 6.1339563 38.697737 0 1 182.41574 32.821252 A 4.6142873 6.1339563 38.697737 0 1 176.93649 38.274666 A 11.681459 29.08309 0 0 0 178.6847 27.209192 A 4.6142873 6.1339563 38.697737 0 1 178.80459 27.206091 z M 166.89524 32.447115 C 167.31579 32.687465 167.5672 33.082259 167.64972 33.631539 C 167.68222 33.848149 167.69604 34.080637 167.69054 34.328137 C 167.67714 34.570467 167.63235 34.889805 167.5567 35.286735 C 167.4908 35.606345 167.45497 35.865439 167.44921 36.063949 C 167.43551 36.257298 167.4413 36.439462 167.4673 36.609652 C 167.4998 36.826271 167.59121 37.032576 167.7417 37.228735 C 167.89221 37.424885 168.06584 37.583225 168.26208 37.704675 L 167.47402 38.005432 C 167.06136 37.770252 166.81304 37.373884 166.72936 36.816874 C 166.69566 36.592514 166.6828 36.364708 166.6906 36.132678 C 166.6976 35.892918 166.74116 35.569444 166.82238 35.162195 C 166.88828 34.842595 166.92808 34.586083 166.94175 34.392733 C 166.94775 34.194223 166.93774 34.013624 166.91384 33.851164 C 166.88014 33.626804 166.78787 33.416344 166.63737 33.220194 C 166.48686 33.024045 166.31374 32.865704 166.11751 32.744255 L 166.89524 32.447115 z M 161.1235 33.286857 C 161.42092 33.455867 161.59985 33.731931 161.6599 34.11523 C 161.6836 34.26638 161.69401 34.428429 161.69091 34.600989 C 161.68191 34.769929 161.65196 34.992625 161.59996 35.269165 C 161.55456 35.491805 161.52997 35.672334 161.52657 35.810734 C 161.51757 35.945514 161.52264 36.072303 161.54104 36.191073 C 161.56474 36.342222 161.6301 36.486314 161.7369 36.623604 C 161.8437 36.760884 161.96654 36.872084 162.10535 36.957434 L 161.55086 37.164657 C 161.25902 36.999287 161.08259 36.722399 161.0217 36.3337 C 160.9972 36.17714 160.98702 36.017462 160.99172 35.855693 C 160.99572 35.688523 161.02574 35.463475 161.08164 35.179765 C 161.12704 34.957115 161.15429 34.778143 161.16329 34.643363 C 161.16629 34.504964 161.15919 34.379485 161.14159 34.266125 C 161.11709 34.109566 161.05153 33.962605 160.9447 33.825326 C 160.8379 33.688046 160.71505 33.576836 160.57625 33.491496 L 161.1235 33.286857 z M 172.82149 33.286857 C 173.11891 33.455867 173.29785 33.731931 173.35789 34.11523 C 173.38159 34.26638 173.392 34.428429 173.3889 34.600989 C 173.3799 34.769929 173.34995 34.992625 173.29795 35.269165 C 173.25255 35.491805 173.22797 35.672334 173.22457 35.810734 C 173.21557 35.945514 173.22064 36.072303 173.23904 36.191073 C 173.26274 36.342222 173.32811 36.486314 173.43489 36.623604 C 173.54169 36.760884 173.66453 36.872084 173.80334 36.957434 L 173.24834 37.164657 C 172.9565 36.999287 172.78006 36.722399 172.71917 36.3337 C 172.69467 36.17714 172.68543 36.017462 172.69023 35.855693 C 172.69423 35.688523 172.72373 35.463475 172.77963 35.179765 C 172.82503 34.957115 172.85228 34.778143 172.86128 34.643363 C 172.86528 34.504964 172.85718 34.379485 172.83958 34.266125 C 172.81508 34.109566 172.74954 33.962605 172.64269 33.825326 C 172.53589 33.688046 172.41305 33.576836 172.27424 33.491496 L 172.82149 33.286857 z " />
    <ellipse
       style="fill:#a9b3ce;fill-opacity:1;stroke-width:0.496717"
       id="path403-3-3-6-7"
       cx="102.04607"
       cy="101.88841"
       rx="30.024614"
       ry="28.994884"
       inkscape:export-filename="coffee-cup4.png"
       inkscape:export-xdpi="96"
       inkscape:export-ydpi="96" />
    <path
       id="path403-3-3-0"
       style="fill:#7284a8;fill-opacity:1;stroke-width:0.496717"
       d="m 74.794235,114.02621 a 30.024614,28.994884 0 0 0 27.249645,16.85323 30.024614,28.994884 0 0 0 27.25015,-16.85323 z" />
    <rect
       style="fill:#e9afa3;fill-opacity:1;stroke-width:0.193567"
       id="rect18911"
       width="9.205349"
       height="12.163228"
       x="103.04773"
       y="89.748909" />
    <path
       id="path2432-6-9"
       style="fill:#f2f2f2;fill-opacity:1;stroke-width:4.63391"
       d="m 90.376396,89.74791 a 11.681459,29.08309 0 0 0 5.718514,24.27759 h 11.89643 a 11.681459,29.08309 0 0 0 3.61373,-8.34212 6.3456471,8.2123824 58.772448 0 0 7.62124,-6.695724 6.3456471,8.2123824 58.772448 0 0 -5.57382,-6.933427 11.681459,29.08309 0 0 0 0.0636,-2.306319 h -4.80798 v 4.026111 h 1.57251 a 0.26458333,0.26458333 0 0 1 0.26459,0.264583 v 4.556828 a 0.26458333,0.26458333 0 0 1 -0.26459,0.264584 h -4.09897 a 0.26458333,0.26458333 0 0 1 -0.26458,-0.264584 v -4.556828 a 0.26458333,0.26458333 0 0 1 0.26458,-0.264583 h 1.57251 V 89.74791 Z m 23.297804,4.120679 a 4.6142873,6.1339563 38.697737 0 1 3.61115,5.615161 4.6142873,6.1339563 38.697737 0 1 -5.47874,5.4529 11.681459,29.08309 0 0 0 1.74822,-11.06496 4.6142873,6.1339563 38.697737 0 1 0.11937,-0.0031 z" />
  </g>
</svg>
